<svg xmlns="http://www.w3.org/2000/svg" viewBox="0 0 240 400" width="240" height="400" role="img"><title>CarPlay and Apple Watch mirroring Now Playing</title><defs><clipPath id="dvpc"><rect width="240" height="400" rx="28"/></clipPath><linearGradient id="dvpg" x1="0" y1="0" x2="0" y2="1"><stop offset="0" stop-color="#171717"/><stop offset="1" stop-color="#0D0D0D"/></linearGradient></defs><g clip-path="url(#dvpc)"><rect width="240" height="400" fill="url(#dvpg)"/><linearGradient id="cpssh" x1="0" y1="0" x2=".4" y2="1"><stop offset="0" stop-color="#3A3A3D"/><stop offset="1" stop-color="#141416"/></linearGradient><rect x="24.0" y="28" width="192" height="124" rx="16" fill="url(#cpssh)" stroke="#4A4A4E"/><rect x="27.0" y="31" width="186" height="118" rx="13" fill="#000"/><clipPath id="cpssc"><rect width="180" height="112" rx="10"/></clipPath><g transform="translate(30.0 34)"><g clip-path="url(#cpssc)"><g opacity="1"><animate attributeName="opacity" values="1;1;0;0;1" keyTimes="0;0.45;0.5;0.95;1" dur="8s" calcMode="spline" keySplines=".45 0 .25 1;.45 0 .25 1;.45 0 .25 1;.45 0 .25 1" repeatCount="indefinite"/><filter id="cp0bd" x="-30%" y="-30%" width="160%" height="160%"><feGaussianBlur stdDeviation="21.6"/></filter><rect width="180" height="112" fill="#141024"/><g filter="url(#cp0bd)"><ellipse cx="36.0" cy="20.2" rx="99.0" ry="33.6" fill="#5B2A86"/><ellipse cx="153.0" cy="33.6" rx="81.0" ry="31.4" fill="#FF6FB5"/><ellipse cx="54.0" cy="84.0" rx="108.0" ry="33.6" fill="#1A1150"/><ellipse cx="162.0" cy="95.2" rx="90.0" ry="28.0" fill="#EB534D"/></g><rect width="180" height="112" fill="#000" fill-opacity="0.35"/><rect width="26" height="112" fill="#000" fill-opacity=".55"/><text x="13" y="13" font-family="-apple-system,BlinkMacSystemFont,'SF Pro Display','Helvetica Neue',Arial,sans-serif" font-size="6.5" font-weight="600" fill="#fff" text-anchor="middle">9:41</text><rect x="6" y="26" width="14" height="14" rx="3.5" fill="#3DCBFF"/><rect x="6" y="45" width="14" height="14" rx="3.5" fill="#EB534D"/><rect x="6" y="64" width="14" height="14" rx="3.5" fill="#34C759"/><path transform="translate(9.5 48.5) scale(0.291667)" d="M7 4.8v14.4c0 .9 1 1.4 1.7.9l11-7.2a1.1 1.1 0 0 0 0-1.8l-11-7.2C8 3.4 7 3.9 7 4.8z" fill="#fff"/><clipPath id="cp0c"><rect width="60" height="60" rx="4.2"/></clipPath><g transform="translate(36 14)"><g clip-path="url(#cp0c)"><linearGradient id="cp0cg" x1="0" y1="0" x2="0" y2="1"><stop offset=".4" stop-color="#1A1150" stop-opacity="0"/><stop offset=".85" stop-color="#1A1150"/></linearGradient><rect width="60" height="60" fill="#1A1150"/><circle cx="36.0" cy="22.8" r="15.6" fill="#FF6FB5"/><rect width="60" height="60" fill="url(#cp0cg)"/><path transform="translate(3.60 3.33) scale(0.0907 0.0907)" d="M0 3.5Q0 0 3.05 1.72L19.95 11.28Q23 13 19.95 14.72L3.05 24.28Q0 26 0 22.5Z" fill="#FF3B54"/><text x="3.60" y="40.81" font-family="-apple-system,BlinkMacSystemFont,'SF Pro Display','Helvetica Neue',Arial,sans-serif" font-size="17.23" font-weight="900" fill="#FF6FB5" textLength="52.80" lengthAdjust="spacingAndGlyphs">MIDNIGHT</text><text x="3.60" y="56.40" font-family="-apple-system,BlinkMacSystemFont,'SF Pro Display','Helvetica Neue',Arial,sans-serif" font-size="19.16" font-weight="900" fill="#FF6FB5" textLength="52.80" lengthAdjust="spacingAndGlyphs">SIGNALS</text></g></g><text x="106" y="30" font-family="-apple-system,BlinkMacSystemFont,'SF Pro Display','Helvetica Neue',Arial,sans-serif" font-size="10" font-weight="700" fill="#fff">Midnight Si…</text><text x="106" y="43" font-family="-apple-system,BlinkMacSystemFont,'SF Pro Display','Helvetica Neue',Arial,sans-serif" font-size="8.5" font-weight="400" fill="#fff" fill-opacity="0.7">Neon Harbour</text><rect x="106" y="58" width="62" height="3" rx="1.5" fill="#fff" fill-opacity=".25"/><rect x="106" y="58" width="5.0" height="3" rx="1.5" fill="#fff"><animate attributeName="width" values="5;22.3;5;5" keyTimes="0;0.5;0.5012;1" dur="8s" calcMode="linear" repeatCount="indefinite"/></rect><path transform="translate(44.5 88.5) scale(0.541667)" d="M12 20s-7.5-4.6-7.5-10.2A4.3 4.3 0 0 1 12 7.2a4.3 4.3 0 0 1 7.5 2.6C19.5 15.4 12 20 12 20z" fill="none" stroke="#fff" stroke-width="2" stroke-linecap="round" stroke-linejoin="round"/><path transform="translate(73.5 87.5) scale(0.625)" d="M11.5 6.3v11.4c0 .8-.9 1.2-1.5.7L3.4 13a1.3 1.3 0 0 1 0-2L10 5.6c.6-.5 1.5-.1 1.5.7zM21 6.3v11.4c0 .8-.9 1.2-1.5.7L12.9 13a1.3 1.3 0 0 1 0-2l6.6-5.4c.6-.5 1.5-.1 1.5.7z" fill="#fff"/><path transform="translate(102 86) scale(0.75)" d="M6 5.2C6 4.5 6.5 4 7.2 4h1.6c.7 0 1.2.5 1.2 1.2v13.6c0 .7-.5 1.2-1.2 1.2H7.2C6.5 20 6 19.5 6 18.8zM14 5.2c0-.7.5-1.2 1.2-1.2h1.6c.7 0 1.2.5 1.2 1.2v13.6c0 .7-.5 1.2-1.2 1.2h-1.6c-.7 0-1.2-.5-1.2-1.2z" fill="#fff"/><path transform="translate(133.5 87.5) scale(0.625)" d="M12.5 6.3v11.4c0 .8.9 1.2 1.5.7l6.6-5.4a1.3 1.3 0 0 0 0-2L14 5.6c-.6-.5-1.5-.1-1.5.7zM3 6.3v11.4c0 .8.9 1.2 1.5.7l6.6-5.4a1.3 1.3 0 0 0 0-2L4.5 5.6C3.9 5.1 3 5.5 3 6.3z" fill="#fff"/><path transform="translate(164.5 88.5) scale(0.541667)" d="M9 6h12M9 12h12M9 18h12M4 6h.5M4 12h.5M4 18h.5" fill="none" stroke="#fff" stroke-width="2" stroke-linecap="round" stroke-linejoin="round"/></g><g opacity="0"><animate attributeName="opacity" values="0;0;1;1;0" keyTimes="0;0.45;0.5;0.95;1" dur="8s" calcMode="spline" keySplines=".45 0 .25 1;.45 0 .25 1;.45 0 .25 1;.45 0 .25 1" repeatCount="indefinite"/><filter id="cp1bd" x="-30%" y="-30%" width="160%" height="160%"><feGaussianBlur stdDeviation="21.6"/></filter><rect width="180" height="112" fill="#141024"/><g filter="url(#cp1bd)"><ellipse cx="36.0" cy="22.4" rx="99.0" ry="33.6" fill="#0E1B4D"/><ellipse cx="153.0" cy="33.6" rx="81.0" ry="31.4" fill="#3DCBFF"/><ellipse cx="54.0" cy="89.6" rx="108.0" ry="33.6" fill="#0B2E24"/><ellipse cx="162.0" cy="95.2" rx="90.0" ry="28.0" fill="#6FF0C4"/></g><rect width="180" height="112" fill="#000" fill-opacity="0.35"/><rect width="26" height="112" fill="#000" fill-opacity=".55"/><text x="13" y="13" font-family="-apple-system,BlinkMacSystemFont,'SF Pro Display','Helvetica Neue',Arial,sans-serif" font-size="6.5" font-weight="600" fill="#fff" text-anchor="middle">9:41</text><rect x="6" y="26" width="14" height="14" rx="3.5" fill="#3DCBFF"/><rect x="6" y="45" width="14" height="14" rx="3.5" fill="#EB534D"/><rect x="6" y="64" width="14" height="14" rx="3.5" fill="#34C759"/><path transform="translate(9.5 48.5) scale(0.291667)" d="M7 4.8v14.4c0 .9 1 1.4 1.7.9l11-7.2a1.1 1.1 0 0 0 0-1.8l-11-7.2C8 3.4 7 3.9 7 4.8z" fill="#fff"/><clipPath id="cp1c"><rect width="60" height="60" rx="4.2"/></clipPath><g transform="translate(36 14)"><g clip-path="url(#cp1c)"><linearGradient id="cp1cg" x1="0" y1="0" x2="0" y2="1"><stop offset=".4" stop-color="#0E1B4D" stop-opacity="0"/><stop offset=".85" stop-color="#0E1B4D"/></linearGradient><rect width="60" height="60" fill="#0E1B4D"/><circle cx="36.0" cy="22.8" r="15.6" fill="#6FF0C4"/><rect width="60" height="60" fill="url(#cp1cg)"/><path transform="translate(3.60 3.33) scale(0.0907 0.0907)" d="M0 3.5Q0 0 3.05 1.72L19.95 11.28Q23 13 19.95 14.72L3.05 24.28Q0 26 0 22.5Z" fill="#FF3B54"/><text x="3.60" y="43.34" font-family="-apple-system,BlinkMacSystemFont,'SF Pro Display','Helvetica Neue',Arial,sans-serif" font-size="24.72" font-weight="900" fill="#6FF0C4" textLength="52.80" lengthAdjust="spacingAndGlyphs">PAPER</text><text x="3.60" y="56.40" font-family="-apple-system,BlinkMacSystemFont,'SF Pro Display','Helvetica Neue',Arial,sans-serif" font-size="15.64" font-weight="900" fill="#6FF0C4" textLength="52.80" lengthAdjust="spacingAndGlyphs">LANTERNS</text></g></g><text x="106" y="30" font-family="-apple-system,BlinkMacSystemFont,'SF Pro Display','Helvetica Neue',Arial,sans-serif" font-size="10" font-weight="700" fill="#fff">Paper Lante…</text><text x="106" y="43" font-family="-apple-system,BlinkMacSystemFont,'SF Pro Display','Helvetica Neue',Arial,sans-serif" font-size="8.5" font-weight="400" fill="#fff" fill-opacity="0.7">Marine Vale</text><rect x="106" y="58" width="62" height="3" rx="1.5" fill="#fff" fill-opacity=".25"/><rect x="106" y="58" width="5.0" height="3" rx="1.5" fill="#fff"><animate attributeName="width" values="5;5;22.3" keyTimes="0;0.5;1" dur="8s" calcMode="linear" repeatCount="indefinite"/></rect><path transform="translate(44.5 88.5) scale(0.541667)" d="M12 20s-7.5-4.6-7.5-10.2A4.3 4.3 0 0 1 12 7.2a4.3 4.3 0 0 1 7.5 2.6C19.5 15.4 12 20 12 20z" fill="none" stroke="#fff" stroke-width="2" stroke-linecap="round" stroke-linejoin="round"/><path transform="translate(73.5 87.5) scale(0.625)" d="M11.5 6.3v11.4c0 .8-.9 1.2-1.5.7L3.4 13a1.3 1.3 0 0 1 0-2L10 5.6c.6-.5 1.5-.1 1.5.7zM21 6.3v11.4c0 .8-.9 1.2-1.5.7L12.9 13a1.3 1.3 0 0 1 0-2l6.6-5.4c.6-.5 1.5-.1 1.5.7z" fill="#fff"/><path transform="translate(102 86) scale(0.75)" d="M6 5.2C6 4.5 6.5 4 7.2 4h1.6c.7 0 1.2.5 1.2 1.2v13.6c0 .7-.5 1.2-1.2 1.2H7.2C6.5 20 6 19.5 6 18.8zM14 5.2c0-.7.5-1.2 1.2-1.2h1.6c.7 0 1.2.5 1.2 1.2v13.6c0 .7-.5 1.2-1.2 1.2h-1.6c-.7 0-1.2-.5-1.2-1.2z" fill="#fff"/><path transform="translate(133.5 87.5) scale(0.625)" d="M12.5 6.3v11.4c0 .8.9 1.2 1.5.7l6.6-5.4a1.3 1.3 0 0 0 0-2L14 5.6c-.6-.5-1.5-.1-1.5.7zM3 6.3v11.4c0 .8.9 1.2 1.5.7l6.6-5.4a1.3 1.3 0 0 0 0-2L4.5 5.6C3.9 5.1 3 5.5 3 6.3z" fill="#fff"/><path transform="translate(164.5 88.5) scale(0.541667)" d="M9 6h12M9 12h12M9 18h12M4 6h.5M4 12h.5M4 18h.5" fill="none" stroke="#fff" stroke-width="2" stroke-linecap="round" stroke-linejoin="round"/></g></g></g><text x="120" y="178" font-family="-apple-system,BlinkMacSystemFont,'SF Pro Display','Helvetica Neue',Arial,sans-serif" font-size="10.5" font-weight="600" fill="#fff" fill-opacity="0.6" text-anchor="middle">CarPlay</text><linearGradient id="wchbn" x1="0" y1="0" x2="0" y2="1"><stop offset="0" stop-color="#2A2A2D"/><stop offset="1" stop-color="#19191B"/></linearGradient><path d="M80.0 224L86.0 202h68L160.0 224z" fill="url(#wchbn)"/><path d="M80.0 337L86.0 359h68L160.0 337z" fill="url(#wchbn)"/><rect x="172.0" y="247.6" width="7" height="22.6" rx="2.5" fill="#2A2A2D" stroke="#19191B"/><rect x="173.0" y="281.5" width="4" height="22.6" rx="2" fill="#19191B"/><linearGradient id="wchsh" x1="0" y1="0" x2=".4" y2="1"><stop offset="0" stop-color="#3A3A3D"/><stop offset="1" stop-color="#141416"/></linearGradient><rect x="66.0" y="216" width="108" height="129" rx="28.24" fill="url(#wchsh)" stroke="#4A4A4E"/><rect x="71.0" y="221" width="98" height="119" rx="23.24" fill="#000"/><clipPath id="wchsc"><rect width="92" height="113" rx="20.24"/></clipPath><g transform="translate(74.0 224)"><g clip-path="url(#wchsc)"><g opacity="1"><animate attributeName="opacity" values="1;1;0;0;1" keyTimes="0;0.45;0.5;0.95;1" dur="8s" calcMode="spline" keySplines=".45 0 .25 1;.45 0 .25 1;.45 0 .25 1;.45 0 .25 1" repeatCount="indefinite"/><filter id="wn0bd" x="-30%" y="-30%" width="160%" height="160%"><feGaussianBlur stdDeviation="13.6"/></filter><rect width="92" height="113" fill="#141024"/><g filter="url(#wn0bd)"><ellipse cx="18.4" cy="20.3" rx="50.6" ry="33.9" fill="#5B2A86"/><ellipse cx="78.2" cy="33.9" rx="41.4" ry="31.6" fill="#FF6FB5"/><ellipse cx="27.6" cy="84.8" rx="55.2" ry="33.9" fill="#1A1150"/><ellipse cx="82.8" cy="96.0" rx="46.0" ry="28.2" fill="#EB534D"/></g><rect width="92" height="113" fill="#000" fill-opacity="0.22"/><circle cx="11.0" cy="11.0" r="6.9" fill="#fff" fill-opacity=".16"/><circle cx="81.0" cy="11.0" r="6.9" fill="#fff" fill-opacity=".16"/><path transform="translate(7.59 7.59) scale(0.2875)" d="M9 17.2V6.6c0-.6.4-1.1 1-1.2l8.8-1.8c.6-.1 1.2.4 1.2 1v10.5a3 3 0 1 1-2-2.8V8l-7 1.5v7.7a3 3 0 1 1-2-2.8z" fill="#fff"/><circle cx="81.0" cy="11.0" r="6.0" fill="none" stroke="#FF2D55" stroke-width="1.1" stroke-dasharray="26.3 999" transform="rotate(-200 81.0 11.0)" stroke-linecap="round"/><g transform="translate(77.97 8.05) scale(0.249167)"><path d="M4 9.5h3.2L11.5 6v12l-4.3-3.5H4z" fill="#fff"/><path d="M14.5 9a4.2 4.2 0 0 1 0 6M17 6.5a7.8 7.8 0 0 1 0 11" fill="none" stroke="#fff" stroke-width="2" stroke-linecap="round"/></g><text x="46" y="13.8" font-family="-apple-system,BlinkMacSystemFont,'SF Pro Display','Helvetica Neue',Arial,sans-serif" font-size="7.82" font-weight="600" fill="#fff" text-anchor="middle">10:09</text><text x="7.36" y="36.8" font-family="-apple-system,BlinkMacSystemFont,'SF Pro Display','Helvetica Neue',Arial,sans-serif" font-size="7.36" font-weight="700" fill="#fff">Midnight Signals</text><text x="7.36" y="46.46" font-family="-apple-system,BlinkMacSystemFont,'SF Pro Display','Helvetica Neue',Arial,sans-serif" font-size="7.36" font-weight="400" fill="#fff" fill-opacity="0.72">Neon Harbour</text><path transform="translate(78.2 30.36) scale(0.383333)" d="M12 20.5s-8-4.8-8-10.6A4.6 4.6 0 0 1 12 7a4.6 4.6 0 0 1 8 2.9c0 5.8-8 10.6-8 10.6z" fill="#FF4D6D"/><circle cx="46.0" cy="69.0" r="12.0" fill="#fff" fill-opacity=".16"/><circle cx="46.0" cy="69.0" r="12.0" fill="none" stroke="#fff" stroke-opacity=".25" stroke-width="0.9"/><circle cx="46.0" cy="69.0" r="12.0" fill="none" stroke="#fff" stroke-width="0.9" stroke-dasharray="75.1" stroke-dashoffset="69.1" stroke-linecap="round" transform="rotate(-90 46.0 69.0)"><animate attributeName="stroke-dashoffset" values="69.1;48.1;69.1;69.1" keyTimes="0;0.5;0.5012;1" dur="8s" calcMode="linear" repeatCount="indefinite"/></circle><path transform="translate(40.94 63.94) scale(0.421667)" d="M6 5.2C6 4.5 6.5 4 7.2 4h1.6c.7 0 1.2.5 1.2 1.2v13.6c0 .7-.5 1.2-1.2 1.2H7.2C6.5 20 6 19.5 6 18.8zM14 5.2c0-.7.5-1.2 1.2-1.2h1.6c.7 0 1.2.5 1.2 1.2v13.6c0 .7-.5 1.2-1.2 1.2h-1.6c-.7 0-1.2-.5-1.2-1.2z" fill="#fff"/><path transform="translate(10.12 62.56) scale(0.536667)" d="M11.5 6.3v11.4c0 .8-.9 1.2-1.5.7L3.4 13a1.3 1.3 0 0 1 0-2L10 5.6c.6-.5 1.5-.1 1.5.7zM21 6.3v11.4c0 .8-.9 1.2-1.5.7L12.9 13a1.3 1.3 0 0 1 0-2l6.6-5.4c.6-.5 1.5-.1 1.5.7z" fill="#fff"/><path transform="translate(69 62.56) scale(0.536667)" d="M12.5 6.3v11.4c0 .8.9 1.2 1.5.7l6.6-5.4a1.3 1.3 0 0 0 0-2L14 5.6c-.6-.5-1.5-.1-1.5.7zM3 6.3v11.4c0 .8.9 1.2 1.5.7l6.6-5.4a1.3 1.3 0 0 0 0-2L4.5 5.6C3.9 5.1 3 5.5 3 6.3z" fill="#fff"/><circle cx="11.0" cy="102.0" r="6.9" fill="#fff" fill-opacity=".16"/><path transform="translate(7.59 98.51) scale(0.2875)" d="M6 4h12a3 3 0 0 1 3 3v8a3 3 0 0 1-3 3h-6l-5 3.5V18H6a3 3 0 0 1-3-3V7a3 3 0 0 1 3-3zM9 9v3M15 9v3" fill="none" stroke="#fff" stroke-width="2" stroke-linecap="round" stroke-linejoin="round"/><circle cx="81.0" cy="102.0" r="6.9" fill="#fff" fill-opacity=".16"/><path transform="translate(77.51 98.51) scale(0.2875)" d="M9 6h12M9 12h12M9 18h12M4 6h.5M4 12h.5M4 18h.5" fill="none" stroke="#fff" stroke-width="2" stroke-linecap="round" stroke-linejoin="round"/></g><g opacity="0"><animate attributeName="opacity" values="0;0;1;1;0" keyTimes="0;0.45;0.5;0.95;1" dur="8s" calcMode="spline" keySplines=".45 0 .25 1;.45 0 .25 1;.45 0 .25 1;.45 0 .25 1" repeatCount="indefinite"/><filter id="wn1bd" x="-30%" y="-30%" width="160%" height="160%"><feGaussianBlur stdDeviation="13.6"/></filter><rect width="92" height="113" fill="#141024"/><g filter="url(#wn1bd)"><ellipse cx="18.4" cy="22.6" rx="50.6" ry="33.9" fill="#0E1B4D"/><ellipse cx="78.2" cy="33.9" rx="41.4" ry="31.6" fill="#3DCBFF"/><ellipse cx="27.6" cy="90.4" rx="55.2" ry="33.9" fill="#0B2E24"/><ellipse cx="82.8" cy="96.0" rx="46.0" ry="28.2" fill="#6FF0C4"/></g><rect width="92" height="113" fill="#000" fill-opacity="0.22"/><circle cx="11.0" cy="11.0" r="6.9" fill="#fff" fill-opacity=".16"/><circle cx="81.0" cy="11.0" r="6.9" fill="#fff" fill-opacity=".16"/><path transform="translate(7.59 7.59) scale(0.2875)" d="M9 17.2V6.6c0-.6.4-1.1 1-1.2l8.8-1.8c.6-.1 1.2.4 1.2 1v10.5a3 3 0 1 1-2-2.8V8l-7 1.5v7.7a3 3 0 1 1-2-2.8z" fill="#fff"/><circle cx="81.0" cy="11.0" r="6.0" fill="none" stroke="#FF2D55" stroke-width="1.1" stroke-dasharray="26.3 999" transform="rotate(-200 81.0 11.0)" stroke-linecap="round"/><g transform="translate(77.97 8.05) scale(0.249167)"><path d="M4 9.5h3.2L11.5 6v12l-4.3-3.5H4z" fill="#fff"/><path d="M14.5 9a4.2 4.2 0 0 1 0 6M17 6.5a7.8 7.8 0 0 1 0 11" fill="none" stroke="#fff" stroke-width="2" stroke-linecap="round"/></g><text x="46" y="13.8" font-family="-apple-system,BlinkMacSystemFont,'SF Pro Display','Helvetica Neue',Arial,sans-serif" font-size="7.82" font-weight="600" fill="#fff" text-anchor="middle">10:09</text><text x="7.36" y="36.8" font-family="-apple-system,BlinkMacSystemFont,'SF Pro Display','Helvetica Neue',Arial,sans-serif" font-size="7.36" font-weight="700" fill="#fff">Paper Lanterns</text><text x="7.36" y="46.46" font-family="-apple-system,BlinkMacSystemFont,'SF Pro Display','Helvetica Neue',Arial,sans-serif" font-size="7.36" font-weight="400" fill="#fff" fill-opacity="0.72">Marine Vale</text><path transform="translate(78.2 30.36) scale(0.383333)" d="M12 20.5s-8-4.8-8-10.6A4.6 4.6 0 0 1 12 7a4.6 4.6 0 0 1 8 2.9c0 5.8-8 10.6-8 10.6z" fill="#FF4D6D"/><circle cx="46.0" cy="69.0" r="12.0" fill="#fff" fill-opacity=".16"/><circle cx="46.0" cy="69.0" r="12.0" fill="none" stroke="#fff" stroke-opacity=".25" stroke-width="0.9"/><circle cx="46.0" cy="69.0" r="12.0" fill="none" stroke="#fff" stroke-width="0.9" stroke-dasharray="75.1" stroke-dashoffset="69.1" stroke-linecap="round" transform="rotate(-90 46.0 69.0)"><animate attributeName="stroke-dashoffset" values="69.1;69.1;48.1" keyTimes="0;0.5;1" dur="8s" calcMode="linear" repeatCount="indefinite"/></circle><path transform="translate(40.94 63.94) scale(0.421667)" d="M6 5.2C6 4.5 6.5 4 7.2 4h1.6c.7 0 1.2.5 1.2 1.2v13.6c0 .7-.5 1.2-1.2 1.2H7.2C6.5 20 6 19.5 6 18.8zM14 5.2c0-.7.5-1.2 1.2-1.2h1.6c.7 0 1.2.5 1.2 1.2v13.6c0 .7-.5 1.2-1.2 1.2h-1.6c-.7 0-1.2-.5-1.2-1.2z" fill="#fff"/><path transform="translate(10.12 62.56) scale(0.536667)" d="M11.5 6.3v11.4c0 .8-.9 1.2-1.5.7L3.4 13a1.3 1.3 0 0 1 0-2L10 5.6c.6-.5 1.5-.1 1.5.7zM21 6.3v11.4c0 .8-.9 1.2-1.5.7L12.9 13a1.3 1.3 0 0 1 0-2l6.6-5.4c.6-.5 1.5-.1 1.5.7z" fill="#fff"/><path transform="translate(69 62.56) scale(0.536667)" d="M12.5 6.3v11.4c0 .8.9 1.2 1.5.7l6.6-5.4a1.3 1.3 0 0 0 0-2L14 5.6c-.6-.5-1.5-.1-1.5.7zM3 6.3v11.4c0 .8.9 1.2 1.5.7l6.6-5.4a1.3 1.3 0 0 0 0-2L4.5 5.6C3.9 5.1 3 5.5 3 6.3z" fill="#fff"/><circle cx="11.0" cy="102.0" r="6.9" fill="#fff" fill-opacity=".16"/><path transform="translate(7.59 98.51) scale(0.2875)" d="M6 4h12a3 3 0 0 1 3 3v8a3 3 0 0 1-3 3h-6l-5 3.5V18H6a3 3 0 0 1-3-3V7a3 3 0 0 1 3-3zM9 9v3M15 9v3" fill="none" stroke="#fff" stroke-width="2" stroke-linecap="round" stroke-linejoin="round"/><circle cx="81.0" cy="102.0" r="6.9" fill="#fff" fill-opacity=".16"/><path transform="translate(77.51 98.51) scale(0.2875)" d="M9 6h12M9 12h12M9 18h12M4 6h.5M4 12h.5M4 18h.5" fill="none" stroke="#fff" stroke-width="2" stroke-linecap="round" stroke-linejoin="round"/></g></g></g><text x="120" y="380" font-family="-apple-system,BlinkMacSystemFont,'SF Pro Display','Helvetica Neue',Arial,sans-serif" font-size="10.5" font-weight="600" fill="#fff" fill-opacity="0.6" text-anchor="middle">Apple Watch</text></g><rect x=".5" y=".5" width="239" height="399" rx="27.5" fill="none" stroke="#262626"/></svg>
