<svg xmlns="http://www.w3.org/2000/svg" viewBox="0 0 240 400" width="240" height="400" role="img"><title>Radar: this month's releases appearing, one playing its preview</title><defs><clipPath id="rdpc"><rect width="240" height="400" rx="28"/></clipPath><linearGradient id="rdpg" x1="0" y1="0" x2="0" y2="1"><stop offset="0" stop-color="#171717"/><stop offset="1" stop-color="#0D0D0D"/></linearGradient></defs><g clip-path="url(#rdpc)"><rect width="240" height="400" fill="url(#rdpg)"/><path transform="translate(20.00 15.14) scale(0.2873 0.2873)" d="M0 3.5Q0 0 3.05 1.72L19.95 11.28Q23 13 19.95 14.72L3.05 24.28Q0 26 0 22.5Z" fill="#FF3B54"/><text x="30.05" y="21.75" font-family="-apple-system,BlinkMacSystemFont,'SF Pro Display','Helvetica Neue',Arial,sans-serif" font-size="7.98" font-weight="900" fill="#fff" textLength="81.88" lengthAdjust="spacingAndGlyphs">NEW RELEASES</text><text x="20" y="42" font-family="-apple-system,BlinkMacSystemFont,'SF Pro Display','Helvetica Neue',Arial,sans-serif" font-size="18" font-weight="700" fill="#fff">Radar</text><text x="220" y="42" font-family="-apple-system,BlinkMacSystemFont,'SF Pro Display','Helvetica Neue',Arial,sans-serif" font-size="10.5" font-weight="400" fill="#fff" fill-opacity="0.5" text-anchor="end">This month</text><g><animate attributeName="opacity" values="1;1;0;0;1;1" keyTimes="0;0.7111;0.7667;0.7778;0.8333;1" dur="9s" calcMode="spline" keySplines=".45 0 .25 1;.45 0 .25 1;.45 0 .25 1;.45 0 .25 1;.45 0 .25 1" repeatCount="indefinite"/><g><animateTransform attributeName="transform" values="0 0;0 0;0 10;0 10;0 0;0 0" keyTimes="0;0.7667;0.7678;0.7778;0.8333;1" dur="9s" calcMode="spline" keySplines=".45 0 .25 1;.45 0 .25 1;.45 0 .25 1;.45 0 .25 1;.45 0 .25 1" repeatCount="indefinite" type="translate"/><linearGradient id="rd0" x1="0" y1="0" x2="1" y2="1"><stop offset="0" stop-color="#FF6FB5"/><stop offset="1" stop-color="#8C5CFF"/></linearGradient><rect x="20" y="70" width="42" height="42" rx="5.9" fill="url(#rd0)"/><text x="74" y="83" font-family="-apple-system,BlinkMacSystemFont,'SF Pro Display','Helvetica Neue',Arial,sans-serif" font-size="12" font-weight="700" fill="#fff">Fairytale</text><text x="74" y="97" font-family="-apple-system,BlinkMacSystemFont,'SF Pro Display','Helvetica Neue',Arial,sans-serif" font-size="10" font-weight="400" fill="#fff" fill-opacity="0.6">Natasha Beller</text><text x="74" y="110" font-family="-apple-system,BlinkMacSystemFont,'SF Pro Display','Helvetica Neue',Arial,sans-serif" font-size="9.5" font-weight="400" fill="#fff" fill-opacity="0.4">Album · 2018</text><path transform="translate(204 83) scale(0.666667)" d="M12 20s-7.5-4.6-7.5-10.2A4.3 4.3 0 0 1 12 7.2a4.3 4.3 0 0 1 7.5 2.6C19.5 15.4 12 20 12 20z" fill="none" stroke="#EB534D" stroke-width="2" stroke-linecap="round" stroke-linejoin="round"/></g></g><g><animate attributeName="opacity" values="1;1;0;0;1;1" keyTimes="0;0.7111;0.7667;0.8222;0.8778;1" dur="9s" calcMode="spline" keySplines=".45 0 .25 1;.45 0 .25 1;.45 0 .25 1;.45 0 .25 1;.45 0 .25 1" repeatCount="indefinite"/><g><animateTransform attributeName="transform" values="0 0;0 0;0 10;0 10;0 0;0 0" keyTimes="0;0.7667;0.7678;0.8222;0.8778;1" dur="9s" calcMode="spline" keySplines=".45 0 .25 1;.45 0 .25 1;.45 0 .25 1;.45 0 .25 1;.45 0 .25 1" repeatCount="indefinite" type="translate"/><linearGradient id="rd1" x1="0" y1="0" x2="1" y2="1"><stop offset="0" stop-color="#E9E6E0"/><stop offset="1" stop-color="#6B6B6B"/></linearGradient><rect x="20" y="126" width="42" height="42" rx="5.9" fill="url(#rd1)"/><text x="74" y="139" font-family="-apple-system,BlinkMacSystemFont,'SF Pro Display','Helvetica Neue',Arial,sans-serif" font-size="12" font-weight="700" fill="#fff">The Slip</text><text x="74" y="153" font-family="-apple-system,BlinkMacSystemFont,'SF Pro Display','Helvetica Neue',Arial,sans-serif" font-size="10" font-weight="400" fill="#fff" fill-opacity="0.6">Nine Inch Nails</text><text x="74" y="166" font-family="-apple-system,BlinkMacSystemFont,'SF Pro Display','Helvetica Neue',Arial,sans-serif" font-size="9.5" font-weight="400" fill="#fff" fill-opacity="0.4">Album · 2008</text><circle cx="212" cy="147.0" r="10" fill="#fff" fill-opacity=".1"/><path transform="translate(208 142) scale(0.416667)" d="M7 4.8v14.4c0 .9 1 1.4 1.7.9l11-7.2a1.1 1.1 0 0 0 0-1.8l-11-7.2C8 3.4 7 3.9 7 4.8z" fill="#fff" opacity="0.8"/></g></g><g><animate attributeName="opacity" values="1;1;0;0;1;1" keyTimes="0;0.7111;0.7667;0.8667;0.9222;1" dur="9s" calcMode="spline" keySplines=".45 0 .25 1;.45 0 .25 1;.45 0 .25 1;.45 0 .25 1;.45 0 .25 1" repeatCount="indefinite"/><g><animateTransform attributeName="transform" values="0 0;0 0;0 10;0 10;0 0;0 0" keyTimes="0;0.7667;0.7678;0.8667;0.9222;1" dur="9s" calcMode="spline" keySplines=".45 0 .25 1;.45 0 .25 1;.45 0 .25 1;.45 0 .25 1;.45 0 .25 1" repeatCount="indefinite" type="translate"/><linearGradient id="rd2" x1="0" y1="0" x2="1" y2="1"><stop offset="0" stop-color="#6FF0C4"/><stop offset="1" stop-color="#2F5BFF"/></linearGradient><rect x="20" y="182" width="42" height="42" rx="5.9" fill="url(#rd2)"/><text x="74" y="195" font-family="-apple-system,BlinkMacSystemFont,'SF Pro Display','Helvetica Neue',Arial,sans-serif" font-size="12" font-weight="700" fill="#fff">Pushing Through…</text><text x="74" y="209" font-family="-apple-system,BlinkMacSystemFont,'SF Pro Display','Helvetica Neue',Arial,sans-serif" font-size="10" font-weight="400" fill="#fff" fill-opacity="0.6">The Polish Ambassador</text><text x="74" y="222" font-family="-apple-system,BlinkMacSystemFont,'SF Pro Display','Helvetica Neue',Arial,sans-serif" font-size="9.5" font-weight="400" fill="#fff" fill-opacity="0.4">Album · 2014</text><circle cx="212" cy="203.0" r="10" fill="#fff" fill-opacity=".1"/><path transform="translate(208 198) scale(0.416667)" d="M7 4.8v14.4c0 .9 1 1.4 1.7.9l11-7.2a1.1 1.1 0 0 0 0-1.8l-11-7.2C8 3.4 7 3.9 7 4.8z" fill="#fff" opacity="0.8"/></g></g><g><animate attributeName="opacity" values="1;1;0;0;1;1" keyTimes="0;0.7111;0.7667;0.9111;0.9667;1" dur="9s" calcMode="spline" keySplines=".45 0 .25 1;.45 0 .25 1;.45 0 .25 1;.45 0 .25 1;.45 0 .25 1" repeatCount="indefinite"/><g><animateTransform attributeName="transform" values="0 0;0 0;0 10;0 10;0 0;0 0" keyTimes="0;0.7667;0.7678;0.9111;0.9667;1" dur="9s" calcMode="spline" keySplines=".45 0 .25 1;.45 0 .25 1;.45 0 .25 1;.45 0 .25 1;.45 0 .25 1" repeatCount="indefinite" type="translate"/><linearGradient id="rd3" x1="0" y1="0" x2="1" y2="1"><stop offset="0" stop-color="#FF7A1A"/><stop offset="1" stop-color="#FF3B30"/></linearGradient><rect x="20" y="238" width="42" height="42" rx="5.9" fill="url(#rd3)"/><text x="74" y="251" font-family="-apple-system,BlinkMacSystemFont,'SF Pro Display','Helvetica Neue',Arial,sans-serif" font-size="12" font-weight="700" fill="#fff">I Don’t Know What…</text><text x="74" y="265" font-family="-apple-system,BlinkMacSystemFont,'SF Pro Display','Helvetica Neue',Arial,sans-serif" font-size="10" font-weight="400" fill="#fff" fill-opacity="0.6">Brad Sucks</text><text x="74" y="278" font-family="-apple-system,BlinkMacSystemFont,'SF Pro Display','Helvetica Neue',Arial,sans-serif" font-size="9.5" font-weight="400" fill="#fff" fill-opacity="0.4">Album · 2003</text><circle cx="212" cy="259.0" r="10" fill="#fff" fill-opacity=".1"/><path transform="translate(208 254) scale(0.416667)" d="M7 4.8v14.4c0 .9 1 1.4 1.7.9l11-7.2a1.1 1.1 0 0 0 0-1.8l-11-7.2C8 3.4 7 3.9 7 4.8z" fill="#fff" opacity="0.8"/></g></g><rect x="20" y="322" width="200" height="58" rx="14" fill="#fff" fill-opacity=".07"/><linearGradient id="rdp" x1="0" y1="0" x2="1" y2="1"><stop offset="0" stop-color="#FF6FB5"/><stop offset="1" stop-color="#8C5CFF"/></linearGradient><rect x="30" y="332" width="38" height="38" rx="5.3" fill="url(#rdp)"/><rect x="78.0" y="345.0" width="2.6" height="3.0" rx="1" fill="#EB534D"><animate attributeName="height" values="3.0;10.0;4.8;8.0;3.0" dur="0.9s" repeatCount="indefinite"/><animate attributeName="y" values="345.0;338.0;343.2;340.0;345.0" dur="0.9s" repeatCount="indefinite"/></rect><rect x="82.0" y="345.0" width="2.6" height="3.0" rx="1" fill="#EB534D"><animate attributeName="height" values="3.0;10.0;4.8;8.0;3.0" dur="1.15s" repeatCount="indefinite"/><animate attributeName="y" values="345.0;338.0;343.2;340.0;345.0" dur="1.15s" repeatCount="indefinite"/></rect><rect x="86.0" y="345.0" width="2.6" height="3.0" rx="1" fill="#EB534D"><animate attributeName="height" values="3.0;10.0;4.8;8.0;3.0" dur="0.8s" repeatCount="indefinite"/><animate attributeName="y" values="345.0;338.0;343.2;340.0;345.0" dur="0.8s" repeatCount="indefinite"/></rect><text x="94" y="347" font-family="-apple-system,BlinkMacSystemFont,'SF Pro Display','Helvetica Neue',Arial,sans-serif" font-size="12" font-weight="700" fill="#fff">Fairytale</text><text x="78" y="362" font-family="-apple-system,BlinkMacSystemFont,'SF Pro Display','Helvetica Neue',Arial,sans-serif" font-size="9.5" font-weight="400" fill="#fff" fill-opacity="0.5">Preview · 0:30</text><rect x="78" y="369" width="128" height="3" rx="1.5" fill="#fff" fill-opacity=".18"/><rect x="78" y="369" width="0" height="3" rx="1.5" fill="#EB534D"><animate attributeName="width" values="0;128" keyTimes="0;1" dur="9s" calcMode="linear" repeatCount="indefinite"/></rect></g><rect x=".5" y=".5" width="239" height="399" rx="27.5" fill="none" stroke="#262626"/></svg>
